<svg width="12" height="16" viewBox="0 0 12 16" fill="none" xmlns="http://www.w3.org/2000/svg">
    <path
        d="M7.5 0H2C1.46957 0 0.960859 0.210714 0.585786 0.585786C0.210714 0.960859 0 1.46957 0 2V14C0 14.5304 0.210714 15.0391 0.585786 15.4142C0.960859 15.7893 1.46957 16 2 16H10C10.5304 16 11.0391 15.7893 11.4142 15.4142C11.7893 15.0391 12 14.5304 12 14V4.5L7.5 0ZM7.5 1V3C7.5 3.39782 7.65804 3.77936 7.93934 4.06066C8.22064 4.34196 8.60218 4.5 9 4.5H11V14C11 14.2652 10.8946 14.5196 10.7071 14.7071C10.5196 14.8946 10.2652 15 10 15H2C1.73478 15 1.48043 14.8946 1.29289 14.7071C1.10536 14.5196 1 14.2652 1 14V2C1 1.73478 1.10536 1.48043 1.29289 1.29289C1.48043 1.10536 1.73478 1 2 1H7.5Z"
        fill="currentColor" />
    <path
        d="M5.19257 11.6715C5.19257 12.1434 4.81505 12.5304 4.33371 12.5304C3.85237 12.5304 3.47485 12.1434 3.47485 11.6715C3.47485 11.1996 3.85237 10.8127 4.33371 10.8127C4.81505 10.8127 5.19257 11.1996 5.19257 11.6715V11.6715ZM4.56226 9.95378H4.09657C3.88599 9.95378 3.71266 9.78819 3.70303 9.57784L3.55033 6.24132C3.54007 6.01691 3.71923 5.82935 3.94387 5.82935H4.72261C4.94761 5.82935 5.12691 6.01747 5.11611 6.2422L4.95578 9.57873C4.94567 9.78872 4.77248 9.95378 4.56226 9.95378Z"
        fill="currentColor" />
    <path
        d="M7.92952 11.6715C7.92952 12.1434 7.55199 12.5303 7.07065 12.5303C6.58931 12.5303 6.21179 12.1434 6.21179 11.6715C6.21179 11.1996 6.58933 10.8126 7.07065 10.8126C7.55199 10.8126 7.92952 11.1996 7.92952 11.6715ZM7.2992 9.95376H6.8335C6.62293 9.95376 6.44959 9.78816 6.43997 9.57782L6.28727 6.2413C6.27701 6.01689 6.45616 5.82935 6.68081 5.82935H7.45953C7.68453 5.82935 7.86383 6.01747 7.85303 6.2422L7.6927 9.57873C7.68261 9.7887 7.50942 9.95376 7.2992 9.95376V9.95376Z"
        fill="currentColor" />
</svg>