<svg width="64" height="64" viewBox="0 0 64 64" fill="none" xmlns="http://www.w3.org/2000/svg">
    <path
        d="M58.1525 43.4792H54.8418V42.9751C54.8418 42.2081 54.2187 41.5841 53.453 41.5841H49.4731C54.454 33.8092 57.2594 25.4783 57.6018 17.3976C57.639 16.5088 57.0683 15.7075 56.2123 15.4481C51.7435 14.1033 51.1992 9.05552 51.1727 6.94638C51.1577 5.88588 50.2812 5.02313 49.2188 5.02313H14.7212C13.6586 5.02313 12.7821 5.88588 12.7673 6.94765C12.7408 9.05552 12.1965 14.1035 7.72625 15.4486C6.87155 15.7075 6.30076 16.5088 6.33802 17.3979C6.67804 25.4376 9.49495 33.769 14.4993 41.5839H10.4868C9.72106 41.5839 9.09798 42.2078 9.09798 42.9749V43.479H5.78734C5.19347 43.479 4.78401 44.0756 4.99678 44.6295L6.01663 47.2851L4.99678 49.9406C4.78379 50.4949 5.1941 51.0911 5.78734 51.0911H9.09798V51.5963C9.09798 52.3621 9.72106 52.9854 10.4868 52.9854H23.9047C25.5917 54.5879 27.3527 56.0735 29.1456 57.401C30.8347 58.6524 33.1049 58.6526 34.7946 57.401C36.5945 56.0673 38.3583 54.5821 40.0434 52.9854H53.4532C54.2189 52.9854 54.842 52.3623 54.842 51.5963V51.0911H58.1525C58.7463 51.0911 59.1558 50.4945 58.943 49.9406L57.9232 47.2851L58.943 44.6295C59.1558 44.0752 58.7457 43.4792 58.1525 43.4792ZM9.09713 49.3974H7.01975L7.7144 47.5887C7.78935 47.3932 7.78935 47.1771 7.7144 46.9817L7.01975 45.173H9.09713V49.3974ZM8.03028 17.3263C8.02541 17.2098 8.10227 17.1042 8.21575 17.0697C13.7585 15.4018 14.4295 9.45016 14.4608 6.97009C14.4627 6.83502 14.5844 6.71667 14.7212 6.71667H49.2186C49.3554 6.71667 49.4771 6.83523 49.479 6.96882C49.5101 9.45016 50.1813 15.4018 55.7226 17.0693C55.8373 17.1042 55.9144 17.2098 55.9093 17.3261C55.5663 25.4228 52.6414 33.8014 47.4488 41.5839H16.5227C11.3068 33.7577 8.37094 25.3792 8.03028 17.3263V17.3263ZM33.7862 56.04C32.6997 56.8446 31.2399 56.845 30.1536 56.0398C28.883 55.0989 27.6288 54.0749 26.4057 52.9851H37.5387C36.3167 54.0717 35.0608 55.0958 33.7862 56.04ZM53.1481 51.2914H10.7917V43.2777H53.1483V51.2914H53.1481ZM56.2254 47.5887L56.9201 49.3974H54.8427V45.173H56.9201L56.2254 46.9817C56.1505 47.1769 56.1505 47.3932 56.2254 47.5887Z"
        fill="currentColor" />
    <path
        d="M36.6137 35.9993C36.2099 35.9993 35.8039 35.8984 35.4289 35.6937L32.1127 33.8844C32.0431 33.8468 31.9591 33.8462 31.8895 33.8844L28.5733 35.6937C27.7117 36.1653 26.6863 36.0877 25.8983 35.4931C25.1104 34.8986 24.7233 33.9107 24.8878 32.9144L25.5211 29.0828C25.5343 29.0022 25.509 28.9198 25.452 28.8625L22.769 26.1483C22.072 25.4427 21.8252 24.4071 22.126 23.446C22.4268 22.4844 23.213 21.7967 24.1764 21.6517L27.8837 21.0924C27.9619 21.0804 28.0292 21.0297 28.0643 20.9557L29.7224 17.469C30.1538 16.5623 31.0262 16 32 16C32.9737 16 33.8467 16.5629 34.2775 17.469L35.9356 20.9557C35.9707 21.0297 36.038 21.0798 36.1156 21.0918L39.8235 21.6511C40.7874 21.7961 41.5731 22.4838 41.8739 23.4454C42.1747 24.4065 41.9285 25.4421 41.2309 26.1477L38.5479 28.8619C38.4909 28.9192 38.4656 29.0016 38.4788 29.0828L39.1121 32.9144C39.2771 33.9107 38.8895 34.8986 38.1016 35.4931C37.6593 35.8292 37.1382 35.9993 36.6137 35.9993V35.9993ZM32.0017 31.4681C32.4077 31.4681 32.8138 31.569 33.1836 31.7707L36.4998 33.5806C36.5872 33.6277 36.6723 33.6218 36.7523 33.5615C36.8322 33.5012 36.8644 33.4194 36.8478 33.3179L36.2145 29.4857C36.0731 28.6297 36.3462 27.7576 36.9455 27.1517L39.628 24.4381C39.6987 24.3665 39.7188 24.2805 39.6884 24.1832C39.6579 24.0853 39.5929 24.0286 39.4951 24.0137L35.7878 23.4544C34.9602 23.3302 34.2453 22.7906 33.8749 22.0122L32.2168 18.5256C32.1294 18.3411 31.8746 18.3411 31.7872 18.5256L30.129 22.0122C29.7587 22.7906 29.0438 23.3302 28.2161 23.455L24.5088 24.0137C24.411 24.0286 24.3461 24.0853 24.3156 24.1832C24.2851 24.2811 24.3052 24.3665 24.376 24.4381L27.059 27.1523C27.6577 27.7576 27.9309 28.6303 27.79 29.4857L27.1567 33.3179C27.1401 33.4194 27.1723 33.5012 27.2522 33.5615C27.3322 33.6218 27.4173 33.6271 27.5047 33.5806L30.8209 31.7713C31.1896 31.5696 31.5956 31.4681 32.0017 31.4681V31.4681Z"
        fill="currentColor" />
</svg>