<?xml version="1.0" encoding="iso-8859-1"?>
<!-- Generator: Adobe Illustrator 19.0.0, SVG Export Plug-In . SVG Version: 6.00 Build 0)  -->
<svg version="1.1" id="Capa_1" xmlns="http://www.w3.org/2000/svg" xmlns:xlink="http://www.w3.org/1999/xlink" x="0px" y="0px"
	 viewBox="0 0 512 512" style="enable-background:new 0 0 512 512;" xml:space="preserve">
<g>
	<g>
		<path d="M418.635,392.635C462.076,349.193,486,291.436,486,230s-23.924-119.193-67.365-162.635C375.193,23.924,317.435,0,256,0
			S136.807,23.924,93.365,67.365C49.924,110.807,26,168.564,26,230s23.924,119.193,67.365,162.635
			c10.731,10.731,22.339,20.266,34.657,28.549L81.45,512h349.1l-46.573-90.816C396.296,412.901,407.903,403.366,418.635,392.635z
			 M56,230c0-110.28,89.72-200,200-200s200,89.72,200,200s-89.72,200-200,200S56,340.28,56,230z M130.55,482l23.454-45.736
			C185.32,451.785,220.027,460,256,460s70.68-8.215,101.996-23.736L381.45,482H130.55z"/>
	</g>
</g>
<g>
	<g>
		<path d="M398.214,215c-1.447-13.819-4.875-27.055-9.986-39.427c-0.06-0.145-0.118-0.29-0.178-0.435
			c-0.555-1.33-1.123-2.654-1.716-3.964c-0.204-0.453-0.422-0.899-0.631-1.35c-0.327-0.703-0.655-1.406-0.993-2.102
			c-0.401-0.83-0.815-1.654-1.232-2.476c-0.101-0.199-0.203-0.397-0.305-0.595c-1.065-2.073-2.164-4.13-3.331-6.152
			c-12.534-21.709-30.633-39.809-52.341-52.342l-12.99-7.5l-0.4,0.693c-10.371-4.631-21.388-8.068-32.879-10.122l21.986-39.013
			h-94.433l21.986,39.013c-11.491,2.054-22.508,5.491-32.879,10.122l-0.4-0.693l-12.99,7.5
			c-21.708,12.533-39.808,30.633-52.341,52.342c-1.166,2.02-2.264,4.074-3.327,6.144c-0.105,0.204-0.21,0.408-0.314,0.612
			c-0.415,0.818-0.826,1.636-1.225,2.461c-0.346,0.711-0.68,1.429-1.014,2.147c-0.202,0.436-0.413,0.868-0.611,1.306
			c-0.596,1.315-1.166,2.644-1.723,3.979c-0.057,0.136-0.112,0.273-0.168,0.41c-5.114,12.376-8.544,25.617-9.992,39.442H113v15v15
			h0.786c1.447,13.819,4.875,27.056,9.987,39.428c0.059,0.144,0.117,0.288,0.177,0.432c0.555,1.331,1.123,2.655,1.717,3.965
			c0.204,0.453,0.422,0.899,0.631,1.35c0.327,0.703,0.655,1.406,0.993,2.102c0.401,0.83,0.815,1.654,1.232,2.476
			c0.101,0.199,0.203,0.397,0.305,0.595c1.065,2.073,2.164,4.13,3.331,6.152c12.534,21.709,30.633,39.809,52.341,52.342l12.99,7.5
			l0.4-0.693C215.656,368.581,235.32,373,256,373s40.344-4.419,58.11-12.351l0.4,0.693l12.99-7.5
			c21.708-12.533,39.808-30.633,52.341-52.342c1.168-2.023,2.267-4.079,3.331-6.152c0.102-0.198,0.204-0.396,0.305-0.595
			c0.418-0.822,0.831-1.646,1.232-2.476c0.338-0.697,0.666-1.399,0.993-2.102c0.209-0.451,0.427-0.897,0.631-1.35
			c0.594-1.31,1.162-2.634,1.717-3.965c0.06-0.144,0.118-0.288,0.177-0.432c5.111-12.372,8.539-25.609,9.987-39.428H399v-15v-15
			H398.214z M246.64,117.391L256,134l9.36-16.609c11.82,0.974,23.129,3.776,33.646,8.12L256,200l-43.006-74.489
			C223.51,121.166,234.819,118.365,246.64,117.391z M153.011,183.511c7.687-16.963,19.45-31.697,34.025-42.96L230.02,215h-86.016
			C145.462,204.133,148.498,193.515,153.011,183.511z M187.036,319.45c-14.575-11.263-26.337-25.997-34.025-42.96
			c-4.513-10.005-7.549-20.623-9.008-31.49h86.016L187.036,319.45z M256,343c-15.22,0-29.742-3.031-43.006-8.511L256,260
			l43.006,74.489C285.742,339.969,271.22,343,256,343z M358.989,276.49c-7.687,16.962-19.45,31.697-34.025,42.96L281.98,245h86.016
			C366.538,255.867,363.502,266.485,358.989,276.49z M281.981,214.999l42.983-74.449c14.575,11.263,26.338,25.998,34.025,42.96
			c4.513,10.005,7.549,20.622,9.008,31.489H281.981z"/>
	</g>
</g>
<g>
	<g>
		<circle cx="427" cy="230" r="15"/>
	</g>
</g>
<g>
	<g>
		<circle cx="85" cy="230" r="15"/>
	</g>
</g>
<g>
	<g>
		<circle cx="376.92" cy="109.08" r="15"/>
	</g>
</g>
<g>
	<g>
		<circle cx="135.09" cy="350.92" r="15"/>
	</g>
</g>
<g>
	<g>
		<circle cx="376.92" cy="350.92" r="15"/>
	</g>
</g>
<g>
	<g>
		<circle cx="135.09" cy="109.08" r="15"/>
	</g>
</g>
<g>
	<g>
		<circle cx="256" cy="401" r="15"/>
	</g>
</g>
<g>
</g>
<g>
</g>
<g>
</g>
<g>
</g>
<g>
</g>
<g>
</g>
<g>
</g>
<g>
</g>
<g>
</g>
<g>
</g>
<g>
</g>
<g>
</g>
<g>
</g>
<g>
</g>
<g>
</g>
</svg>
