<svg id="Capa_1" enable-background="new 0 0 512 512" height="512" viewBox="0 0 512 512" width="512" xmlns="http://www.w3.org/2000/svg"><g><path d="m497 482h-5v-15c0-24.813-20.187-45-45-45h-25v-45c0-24.813-20.187-45-45-45h-28.58c-5.228-14.739-17.924-25.971-33.521-29.113-9.105-15.787-13.899-33.604-13.899-51.943v-9.089c20.251-9.646 36.947-25.589 47.539-45.284 12.905 17.777 32.219 30.677 54.52 35.137.993.199 1.982.294 2.957.294 7.004 0 13.267-4.931 14.693-12.061 1.624-8.124-3.644-16.026-11.768-17.65-21.382-4.277-38.622-20.262-44.83-40.816 32.024-4.006 56.889-31.382 56.889-64.475v-30c0-19.299-15.701-35-35-35h-25v-17c0-8.284-6.716-15-15-15h-180c-8.284 0-15 6.716-15 15v17h-25c-19.299 0-35 15.701-35 35v30c0 33.093 24.865 60.469 56.889 64.476-6.208 20.553-23.448 36.539-44.83 40.816-8.124 1.625-13.392 9.527-11.768 17.65 1.427 7.131 7.689 12.061 14.693 12.061.975 0 1.965-.096 2.957-.294 22.3-4.46 41.615-17.359 54.52-35.137 10.593 19.694 27.287 35.637 47.539 45.284v9.089c0 18.339-4.794 36.156-13.899 51.943-15.597 3.142-28.293 14.374-33.521 29.113h-28.58c-24.813 0-45 20.187-45 45v45h-25c-24.813 0-45 20.187-45 45v15h-5c-8.284 0-15 6.716-15 15s6.716 15 15 15h40c8.284 0 15-6.716 15-15s-6.716-15-15-15h-5v-15c0-8.271 6.729-15 15-15h90c8.271 0 15 6.729 15 15v15h-5c-8.284 0-15 6.716-15 15s6.716 15 15 15h40c8.284 0 15-6.716 15-15s-6.716-15-15-15h-5v-15c0-24.813-20.187-45-45-45h-35v-45c0-8.271 6.729-15 15-15h26v15c0 8.284 6.716 15 15 15h160c8.284 0 15-6.716 15-15v-15h26c8.271 0 15 6.729 15 15v45h-35c-24.813 0-45 20.187-45 45v15h-5c-8.284 0-15 6.716-15 15s6.716 15 15 15h40c8.284 0 15-6.716 15-15s-6.716-15-15-15h-5v-15c0-8.271 6.729-15 15-15h90c8.271 0 15 6.729 15 15v15h-5c-8.284 0-15 6.716-15 15s6.716 15 15 15h40c8.284 0 15-6.716 15-15s-6.716-15.001-15-15.001zm-136-420h25c2.757 0 5 2.243 5 5v30c0 17.601-13.062 32.203-30 34.637zm-210 69.637c-16.938-2.434-30-17.036-30-34.637v-30c0-2.757 2.243-5 5-5h25zm30 15.363v-117h150v117c0 41.355-33.645 75-75 75s-75-33.645-75-75zm100.107 155h-50.214c6.643-16.104 10.107-33.39 10.107-51.056v-.02c4.901.704 9.907 1.076 15 1.076s10.099-.372 15-1.076v.02c0 17.666 3.464 34.952 10.107 51.056zm39.893 60h-130v-15c0-8.271 6.729-15 15-15h100c8.271 0 15 6.729 15 15z"/></g></svg>